{"title":"Lawrence of Arabia (1962)","uid":6082597,"size":1472847157,"categoryP":"video","categoryS":"movies","magnet":"?xt=urn:btih:bccde5f24ea53dca363e38d8140ac0f0e10e7e40&amp;dn=Lawrence+of+Arabia+%281962%29&amp;tr=udp%3A%2F%2Ftracker.openbittorrent.com%3A80&amp;tr=udp%3A%2F%2Fopen.demonii.com%3A1337&amp;tr=udp%3A%2F%2Ftracker.coppersurfer.tk%3A6969&amp;tr=udp%3A%2F%2Fexodus.desync.com%3A6969","seeders":1,"leechers":0,"uploader":"tiburon1978","files":-1,"time":1294179113,"description":"Lawrence of Arabia (1962)\n\nAn inordinately complex man who has been labeled everything from hero, \nto charlatan, to sadist, Thomas Edward Lawrence blazed his way to glory \nin the Arabian desert, then sought anonymity as a common soldier under \nan assumed name. The story opens with the death of Lawrence in a motorcycle \naccident in London at the age of 47, then flashbacks to recount his \nadventures: as a young intelligence officer in Cairo in 1916, he is given \nleave to investigate the progress of the Arab revolt against the Turks in World War I. \nIn the desert, he organizes a guerrilla army and--for two years--leads the Arabs in \nharassing the Turks with desert raids, train-wrecking and camel attacks. Eventually, \nhe leads his army northward and helps a British General destroy the power of the \nOttoman Empire. \nWritten by alfiehitchie   \n &lt;a href=&quot;\nhttp://www.imdb.com/title/tt0056172/&quot; rel=&quot;nofollow&quot; target=&quot;_NEW&quot;&gt;\nhttp://www.imdb.com/title/tt0056172/&lt;/a&gt;\n &lt;a href=&quot;\nhttp://bayimg.com/cAcpjaADG.jpg&quot; rel=&quot;nofollow&quot; target=&quot;_NEW&quot;&gt;\nhttp://bayimg.com/cAcpjaADG.jpg&lt;/a&gt;\n &lt;a href=&quot;\nhttp://img209.imageshack.us/img209/8243/lawrenceofarabia.jpg&quot; rel=&quot;nofollow&quot; target=&quot;_NEW&quot;&gt;\nhttp://img209.imageshack.us/img209/8243/lawrenceofarabia.jpg&lt;/a&gt;\n\nGeneral\nComplete name                    : lawrence of arabia.avi\nFormat                           : AVI\nFormat/Info                      : Audio Video Interleave\nFile size                        : 700 MiB\nDuration                         : 1h 51mn\nOverall bit rate                 : 877 Kbps\nWriting application              : VirtualDubMod 1.5.4.1 (build 2178/release)\nWriting library                  : VirtualDubMod build 2178/release\n\nVideo\nID                               : 0\nFormat                           : MPEG-4 Visual\nFormat profile                   : Advanced Simple@L5\nFormat settings, BVOP            : Yes\nFormat settings, QPel            : No\nFormat settings, GMC             : No warppoints\nFormat settings, Matrix          : Custom\nCodec ID                         : XVID\nCodec ID/Hint                    : XviD\nDuration                         : 1h 51mn\nBit rate                         : 421 Kbps\nWidth                            : 560 pixels\nHeight                           : 320 pixels\nDisplay aspect ratio             : 16:9\nFrame rate                       : 29.970 fps\nColor space                      : YUV\nChroma subsampling               : 4:2:0\nBit depth                        : 8 bits\nScan type                        : Progressive\nCompression mode                 : Lossy\nBits/(Pixel*Frame)               : 0.078\nStream size                      : 336 MiB (48%)\nWriting library                  : XviD 1.2.1 (UTC 2008-12-04)\n\nAudio\nID                               : 1\nFormat                           : AC-3\nFormat/Info                      : Audio Coding 3\nMode extension                   : CM (complete main)\nCodec ID                         : 2000\nDuration                         : 1h 51mn\nBit rate mode                    : Constant\nBit rate                         : 448 Kbps\nChannel(s)                       : 6 channels\nChannel positions                : Front: L C R, Side: L R, LFE\nSampling rate                    : 48.0 KHz\nBit depth                        : 16 bits\nCompression mode                 : Lossy\nStream size                      : 358 MiB (51%)\nAlignment                        : Aligned on interleaves\nInterleave, duration             : 96 ms (2.88 video frames)\nInterleave, preload duration     : 96 ms\n\n","torrent":{"xt":"urn:btih:bccde5f24ea53dca363e38d8140ac0f0e10e7e40","amp;dn":"Lawrence+of+Arabia+%281962%29","amp;tr":["udp%3A%2F%2Ftracker.openbittorrent.com%3A80","udp%3A%2F%2Fopen.demonii.com%3A1337","udp%3A%2F%2Ftracker.coppersurfer.tk%3A6969","udp%3A%2F%2Fexodus.desync.com%3A6969"],"infoHash":"bccde5f24ea53dca363e38d8140ac0f0e10e7e40","infoHashBuffer":{"type":"Buffer","data":[188,205,229,242,78,165,61,202,54,62,56,216,20,10,192,240,225,14,126,64]},"announce":[],"urlList":[]}}